<svg width="32" height="32" viewBox="0 0 32 32" fill="none" xmlns="http://www.w3.org/2000/svg">
<circle cx="16" cy="16" r="16" fill="url(#paint0_linear_275_34)" fill-opacity="0.15"/>
<path d="M15.9524 12.3018C13.7302 12.3018 11.8889 14.1113 11.8889 16.3652C11.8889 18.6192 13.6984 20.4287 15.9524 20.4287C18.2064 20.4287 20.0159 18.5875 20.0159 16.3652C20.0159 14.143 18.1746 12.3018 15.9524 12.3018ZM15.9524 18.9684C14.5238 18.9684 13.3492 17.7938 13.3492 16.3652C13.3492 14.9367 14.5238 13.7621 15.9524 13.7621C17.381 13.7621 18.5556 14.9367 18.5556 16.3652C18.5556 17.7938 17.381 18.9684 15.9524 18.9684Z" fill="#DCDEF1"/>
<path d="M20.1745 13.1269C20.683 13.1269 21.0952 12.7147 21.0952 12.2063C21.0952 11.6978 20.683 11.2856 20.1745 11.2856C19.6661 11.2856 19.2539 11.6978 19.2539 12.2063C19.2539 12.7147 19.6661 13.1269 20.1745 13.1269Z" fill="#DCDEF1"/>
<path d="M22.5555 9.82551C21.7301 8.96837 20.5555 8.52393 19.2222 8.52393H12.6825C9.92062 8.52393 8.07935 10.3652 8.07935 13.1271V19.635C8.07935 21.0001 8.52379 22.1747 9.41268 23.0319C10.2698 23.8573 11.4127 24.27 12.7143 24.27H19.1905C20.5555 24.27 21.6984 23.8255 22.5238 23.0319C23.3809 22.2065 23.8254 21.0319 23.8254 19.6668V13.1271C23.8254 11.7938 23.3809 10.6509 22.5555 9.82551ZM22.4285 19.6668C22.4285 20.6509 22.0793 21.4446 21.5079 21.9842C20.9365 22.5239 20.1428 22.8096 19.1905 22.8096H12.7143C11.7619 22.8096 10.9682 22.5239 10.3968 21.9842C9.82538 21.4128 9.53966 20.6192 9.53966 19.635V13.1271C9.53966 12.1747 9.82538 11.3811 10.3968 10.8096C10.9365 10.27 11.7619 9.98424 12.7143 9.98424H19.2539C20.2063 9.98424 21 10.27 21.5714 10.8414C22.1111 11.4128 22.4285 12.2065 22.4285 13.1271V19.6668Z" fill="#DCDEF1"/>
<defs>
<linearGradient id="paint0_linear_275_34" x1="-16" y1="16" x2="16" y2="48" gradientUnits="userSpaceOnUse">
<stop stop-color="#EBEDFF"/>
<stop offset="1" stop-color="#ADB8FF"/>
</linearGradient>
</defs>
</svg>
