<svg width="32" height="32" viewBox="0 0 32 32" fill="none" xmlns="http://www.w3.org/2000/svg">
<circle cx="16" cy="16" r="16" fill="url(#paint0_linear_275_41)" fill-opacity="0.15"/>
<g clip-path="url(#clip0_275_41)">
<path d="M24.325 19.7499C24.25 19.7499 24.25 19.7499 24.325 19.7499C24.1 19.5999 23.95 19.5999 23.8 19.5249H23.725C22.975 19.2999 22.3 18.7749 21.775 18.0999C21.475 17.7249 21.25 17.2749 21.1 16.8999C21.025 16.7499 21.1 16.6749 21.025 16.6749C21.025 16.6749 21.025 16.6749 21.1 16.5999C21.25 16.4499 21.475 16.2999 21.7 16.2249C22.075 16.0749 22.45 15.9249 22.825 15.6249C22.9 15.5499 22.975 15.4749 23.05 15.3249C23.125 15.0999 23.125 14.8749 23.05 14.6499C22.75 14.4999 22.525 14.3499 22.45 14.2749C22.225 14.1249 21.85 14.1249 21.55 14.1999C21.475 14.1999 21.4 14.2749 21.325 14.2749C21.25 14.2749 21.175 14.3499 21.1 14.3499H21.025C20.95 14.3499 20.875 14.3499 20.8 14.3499C20.8 14.1999 20.8 14.0499 20.8 13.8249C20.8 13.6749 20.8 13.5249 20.8 13.3749V13.2999C20.8 12.6999 20.8 12.0999 20.725 11.5749V11.4999C20.5 10.4499 19.825 9.4749 18.85 8.7249C18.175 8.2749 17.425 7.9749 16.6 7.8999C16.375 7.8999 16.15 7.8999 15.925 7.8999H15.775C14.95 7.8999 13.75 8.0499 12.7 8.8749C12.025 9.3999 11.5 10.0749 11.2 10.8249C11.05 11.7249 11.05 12.5499 11.125 13.2249V13.5999C11.125 13.8999 11.125 14.1249 11.125 14.3499C11.05 14.3499 10.9 14.3499 10.825 14.2749C10.75 14.2749 10.675 14.2749 10.525 14.2749C10.45 14.2749 10.375 14.1999 10.375 14.1999H10.3C9.99996 14.1249 9.69996 14.1999 9.54996 14.3499C9.54996 14.3499 9.54996 14.3499 9.47496 14.3499C9.17496 14.5749 9.02496 14.7999 9.02496 15.0999C9.02496 15.0999 9.02496 15.1749 9.02496 15.2499C9.02496 15.4749 9.17496 15.6249 9.32495 15.7749C9.39996 15.8499 9.47496 15.8499 9.47496 15.9249L9.54996 15.9999C9.84996 16.2249 10.225 16.2999 10.525 16.4499L10.75 16.3749C10.975 16.4499 11.05 16.5999 11.05 16.5999C11.125 16.8249 10.9 17.1249 10.9 17.1999C10.525 17.9499 9.99995 18.5499 9.32495 18.9999C8.94995 19.2249 8.57496 19.3749 8.19996 19.5249H8.12496C7.97496 19.5249 7.74996 19.5999 7.52496 19.8999C7.52496 19.8999 7.44996 19.9749 7.44996 20.0499C7.37496 20.3499 7.44996 20.5749 7.59996 20.7249C7.67496 20.8749 7.82496 20.9499 7.89996 20.9499C8.27496 21.1749 8.72496 21.2499 9.09996 21.3999H9.17496C9.17496 21.3999 9.17496 21.3999 9.24996 21.3999L9.47496 21.4749C9.54996 21.4749 9.69995 21.5499 9.77496 21.5499C9.77496 21.6249 9.84996 21.7749 9.84996 21.8499C9.84996 21.9999 9.92496 22.0749 9.92496 22.2249C9.84996 22.5249 9.99996 22.6749 10.225 22.7499C10.45 22.8249 10.6 22.7499 10.675 22.7499C11.275 22.6749 11.875 22.5999 12.325 22.6749C12.7 22.7499 13.075 23.0499 13.525 23.2749C13.675 23.3499 13.825 23.4249 13.975 23.5749C14.425 23.8749 14.875 24.0999 15.55 24.0999C15.7 24.0999 15.775 24.0999 15.925 24.0999C16.225 24.0999 16.525 24.0999 16.825 24.0249C17.2 24.0249 17.575 23.8749 17.875 23.6499C18.1 23.4999 18.325 23.3499 18.55 23.1999C18.925 22.9749 19.225 22.7499 19.6 22.5999C19.675 22.5999 19.825 22.5249 20.05 22.5249H20.2C20.65 22.5249 21.175 22.5249 21.625 22.5999H21.775C21.925 22.5999 22.075 22.5249 22.15 22.3749C22.225 22.2999 22.225 22.2249 22.3 22.1499L22.375 21.9249C22.45 21.7749 22.45 21.5499 22.525 21.5499H22.6H22.675C23.125 21.4749 23.5 21.3999 23.8 21.2499L23.95 21.1749H24.025C24.175 21.0999 24.4 21.0249 24.625 20.7249C24.7 20.5749 24.775 20.3499 24.775 20.1999C24.55 20.0499 24.475 19.8999 24.325 19.7499Z" fill="#DCDEF1"/>
</g>
<defs>
<linearGradient id="paint0_linear_275_41" x1="-16" y1="16" x2="16" y2="48" gradientUnits="userSpaceOnUse">
<stop stop-color="#EBEDFF"/>
<stop offset="1" stop-color="#ADB8FF"/>
</linearGradient>
<clipPath id="clip0_275_41">
<rect width="18" height="18" fill="white" transform="translate(7 7)"/>
</clipPath>
</defs>
</svg>
